<?xml version="1.0"?>
<svg xmlns="http://www.w3.org/2000/svg" xmlns:xlink="http://www.w3.org/1999/xlink" xmlns:svgjs="http://svgjs.com/svgjs" version="1.1" width="512" height="512" x="0" y="0" viewBox="0 0 24 24" style="enable-background:new 0 0 512 512" xml:space="preserve"><g><path xmlns="http://www.w3.org/2000/svg" d="M1,6H23a1,1,0,0,0,0-2H1A1,1,0,0,0,1,6Z" fill="#ffffff" data-original="#000000"/><path xmlns="http://www.w3.org/2000/svg" d="M23,9H9a1,1,0,0,0,0,2H23a1,1,0,0,0,0-2Z" fill="#ffffff" data-original="#000000"/><path xmlns="http://www.w3.org/2000/svg" d="M23,19H9a1,1,0,0,0,0,2H23a1,1,0,0,0,0-2Z" fill="#ffffff" data-original="#000000"/><path xmlns="http://www.w3.org/2000/svg" d="M23,14H1a1,1,0,0,0,0,2H23a1,1,0,0,0,0-2Z" fill="#ffffff" data-original="#000000"/></g></svg>
